<?xml version="1.0" encoding="utf-8"?>
<!-- Generator: Adobe Illustrator 22.1.0, SVG Export Plug-In . SVG Version: 6.00 Build 0)  -->
<svg version="1.1" id="Layer_1" xmlns="http://www.w3.org/2000/svg" xmlns:xlink="http://www.w3.org/1999/xlink" x="0px" y="0px"
	 viewBox="0 0 12 12" style="enable-background:new 0 0 12 12;" xml:space="preserve">
<style type="text/css">
	.st0{fill:#FCFCFC;}
</style>
<path class="st0" d="M0.8,10.5c0,0-0.8,0-0.8-0.8s0.8-3,4.5-3S9,9,9,9.8s-0.8,0.8-0.8,0.8H0.8z M4.5,6c1.2,0,2.3-1,2.3-2.3
	s-1-2.3-2.3-2.3s-2.3,1-2.3,2.3S3.3,6,4.5,6z M11.9,3.9C12,4,12,4.2,11.9,4.4c0,0,0,0,0,0L9.6,6.6c-0.1,0.1-0.4,0.1-0.5,0
	c0,0,0,0,0,0L8,5.5C7.8,5.4,7.8,5.1,8,5c0.1-0.1,0.4-0.1,0.5,0l0.9,0.9l2-2C11.5,3.7,11.7,3.7,11.9,3.9C11.9,3.9,11.9,3.9,11.9,3.9z
	"/>
</svg>
